<svg xmlns="http://www.w3.org/2000/svg" viewBox="0 0 64 64" fill="none">
  
  <rect x="2" y="2" width="60" height="60" rx="3" fill="#1F3D2E"></rect>
  <rect x="4" y="4" width="56" height="56" rx="2" fill="none" stroke="#C9A84C" stroke-width="0.6"></rect>
  
  <path d="M 16 52 L 16 32 Q 16 16 32 12 Q 48 16 48 32 L 48 52 Z" fill="none" stroke="#DCB65E" stroke-width="1.6" stroke-linejoin="round"></path>
  
  <path d="M 22 32 Q 22 22 32 18 Q 42 22 42 32" fill="none" stroke="#DCB65E" stroke-width="0.8"></path>
  
  <g transform="translate(32,34)" fill="#DCB65E">
    <polygon points="0,-6 1.7,-1.7 6,0 1.7,1.7 0,6 -1.7,1.7 -6,0 -1.7,-1.7"></polygon>
    <polygon points="0,-6 1.7,-1.7 6,0 1.7,1.7 0,6 -1.7,1.7 -6,0 -1.7,-1.7" transform="rotate(45)"></polygon>
  </g>
  <line x1="14" y1="54" x2="50" y2="54" stroke="#C9A84C" stroke-width="0.5"></line>
</svg>