<svg xmlns="http://www.w3.org/2000/svg" viewBox="0 0 80 80" fill="none">
  <g stroke="currentColor" stroke-width="0.8" fill="none">
    
    <g transform="translate(40,40)">
      <polygon points="0,-18 5,-5 18,0 5,5 0,18 -5,5 -18,0 -5,-5"></polygon>
      <polygon points="0,-18 5,-5 18,0 5,5 0,18 -5,5 -18,0 -5,-5" transform="rotate(45)"></polygon>
      <circle r="4"></circle>
      <circle r="22"></circle>
    </g>
    
    <g transform="translate(0,0)">
      <polygon points="0,-8 3,-3 8,0 3,3 0,8 -3,3 -8,0 -3,-3"></polygon>
    </g>
    <g transform="translate(80,0)">
      <polygon points="0,-8 3,-3 8,0 3,3 0,8 -3,3 -8,0 -3,-3"></polygon>
    </g>
    <g transform="translate(0,80)">
      <polygon points="0,-8 3,-3 8,0 3,3 0,8 -3,3 -8,0 -3,-3"></polygon>
    </g>
    <g transform="translate(80,80)">
      <polygon points="0,-8 3,-3 8,0 3,3 0,8 -3,3 -8,0 -3,-3"></polygon>
    </g>
    
    <line x1="40" y1="18" x2="40" y2="0"></line>
    <line x1="40" y1="62" x2="40" y2="80"></line>
    <line x1="18" y1="40" x2="0" y2="40"></line>
    <line x1="62" y1="40" x2="80" y2="40"></line>
    
    <path d="M 8,8 Q 20,20 18,40"></path>
    <path d="M 72,8 Q 60,20 62,40"></path>
    <path d="M 8,72 Q 20,60 18,40"></path>
    <path d="M 72,72 Q 60,60 62,40"></path>
  </g>
</svg>